<svg xmlns="http://www.w3.org/2000/svg" viewBox="0 0 64 64">
  <defs>
    <linearGradient id="aura-gradient" x1="8" y1="56" x2="56" y2="8" gradientUnits="userSpaceOnUse">
      <stop stop-color="#9F86C0"/>
      <stop offset="1" stop-color="#C8B6FF"/>
    </linearGradient>
  </defs>
  <rect width="64" height="64" rx="18" fill="url(#aura-gradient)"/>
  <path
    d="M31.5 13.5 35 24a8 8 0 0 0 5 5l10.5 3.5L40 36a8 8 0 0 0-5 5L31.5 51.5 28 41a8 8 0 0 0-5-5l-10.5-3.5L23 29a8 8 0 0 0 5-5l3.5-10.5Z"
    fill="none"
    stroke="#fff"
    stroke-linecap="round"
    stroke-linejoin="round"
    stroke-width="4"
  />
  <path d="m48 10 .9 2.6a4 4 0 0 0 2.5 2.5L54 16l-2.6.9a4 4 0 0 0-2.5 2.5L48 22l-.9-2.6a4 4 0 0 0-2.5-2.5L42 16l2.6-.9a4 4 0 0 0 2.5-2.5L48 10Z" fill="#fff"/>
</svg>
